<svg width="133" height="36" viewBox="0 0 133 36" fill="none" xmlns="http://www.w3.org/2000/svg">
<path fill-rule="evenodd" clip-rule="evenodd" d="M1.995 27.0947C3.42 29.7474 5.32 31.8316 7.885 33.2526C10.45 34.6737 13.49 35.3368 16.815 35.4316C20.235 35.4316 23.18 34.6737 25.745 33.2526C28.215 31.8316 30.21 29.7474 31.54 27.0947C32.87 24.4421 33.535 21.3158 33.535 17.7158C33.535 14.1158 32.87 10.9895 31.54 8.33684C30.21 5.68421 28.31 3.6 25.745 2.17895C23.18 0.757895 20.235 0 16.815 0C13.395 0 10.45 0.757895 7.885 2.17895C5.415 3.6 3.42 5.68421 2.09 8.24211C0.665 10.8947 0 14.0211 0 17.6211C0 21.2211 0.665 24.3474 1.995 27.0947ZM26.125 17.7158C26.125 21.5053 25.27 24.4421 23.655 26.4316C22.04 28.4211 19.76 29.4632 16.91 29.4632C13.965 29.4632 11.685 28.4211 10.07 26.4316C8.455 24.3474 7.6 21.5053 7.6 17.6211C7.6 13.8316 8.455 10.9895 9.975 9C11.59 7.01053 13.87 5.96842 16.815 5.96842C19.76 5.96842 22.04 7.01053 23.655 9C25.27 10.9895 26.125 13.9263 26.125 17.7158Z" fill="#050A3A"/>
<path d="M39.33 35.3368V0H46.74V35.3368H39.33Z" fill="#050A3A"/>
<path d="M75.7151 10.0421V35.3369H68.9701V31.3579C67.6401 32.6842 67.0701 33.6316 65.7401 34.2947C64.5051 34.9579 62.9851 35.3369 61.3701 35.3369C58.3301 35.3369 55.9551 34.4842 54.4351 32.779C52.9151 31.0737 52.0601 28.5158 52.0601 25.0105V10.0421H59.4701V25.1053C59.4701 28.0421 60.7051 29.5579 63.2701 29.5579C64.7901 29.5579 65.9301 29.0842 66.8801 28.0421C67.8301 27 68.2101 25.6737 68.2101 23.9684V10.0421H75.7151Z" fill="#050A3A"/>
<path d="M118.18 12.6947C119.51 14.4 120.27 16.9579 120.27 20.4632V35.3368H112.86V20.7474C112.86 19.0421 112.67 17.8105 112.1 17.0526C111.53 16.2947 110.675 15.9158 109.44 15.9158C107.92 15.9158 106.78 16.3895 106.02 17.4316C105.165 18.4737 104.785 19.8947 104.785 21.7895V35.3368H97.375V20.7474C97.375 19.0421 97.09 17.8105 96.52 17.0526C95.95 16.2947 95.095 15.9158 93.86 15.9158C92.34 15.9158 91.295 16.3895 90.44 17.4316C89.585 18.4737 89.3 19.8947 89.3 21.7895V35.3368H81.89V17.8105C81.89 15.1579 81.795 13.1684 81.51 10.4211H88.445L88.92 14.3053C89.68 12.8842 90.725 11.9368 92.055 11.1789C93.385 10.4211 94.905 10.1368 96.71 10.1368C100.32 10.1368 102.79 11.6526 104.025 14.6842C104.88 13.2632 105.925 12.2211 107.35 11.3684C108.775 10.5158 110.39 10.1368 112.1 10.1368C114.665 10.1368 116.755 10.9895 118.18 12.6947Z" fill="#050A3A"/>
<path d="M125.59 27.2842H133V35.3368H125.59V27.2842Z" fill="url(#paint0_linear_4_133)"/>
<defs>
<linearGradient id="paint0_linear_4_133" x1="123.862" y1="33.8891" x2="131.957" y2="36.9434" gradientUnits="userSpaceOnUse">
<stop stop-color="#FFD0A8"/>
<stop offset="0.9995" stop-color="#FF4FC0"/>
</linearGradient>
</defs>
</svg>
